# xmcd
#
# Track frame offsets:
#	150
#	12197
#	24742
#	37200
#	50007
#	63077
#	74425
#	87675
#	100505
#	113110
#	124650
#	135930
#	147810
#	159525
#	170982
#	183617
#	196462
#	207337
#	220010
#	233162
#	244635
#	258290
#	270330
#	282065
#	294200
#
# Disc length: 4078 seconds
#
# Revision: 1
# Processed by: cddbd v1.4PL0 Copyright (c) Steve Scherf et al.
# Submitted via: CDmax 1.8
#
DISCID=6e0fec19
DTITLE=Pee-Wee King - Pee-Wee King And His Golden West Cowboys, CD #3
DYEAR=1900
DGENRE=Country
TTITLE0=Going Back To A.L.A.
TTITLE1=You Call Everybody Darlin'
TTITLE2=The Battle Hymn Of The Republic
TTITLE3=Black Eyed Susie
TTITLE4=When They Played That Old Missouri Waltz
TTITLE5=Blame It All On Nashville
TTITLE6=The Kissing Dance
TTITLE7=Rag Mop
TTITLE8=What, Where And When
TTITLE9=Birmingham Bounce
TTITLE10=We're Gonna Go Fishin' (Next Saturday Night)
TTITLE11=Cincinnati Dancing Pig
TTITLE12=River Road Two Step
TTITLE13=Mop Rag Boogie
TTITLE14=No One But You
TTITLE15=Within My Heart (La Golondrina)
TTITLE16=Helegged Hilegged
TTITLE17=You Drifted
TTITLE18=The Strange Little Girl
TTITLE19=Chew Tobacco Rag
TTITLE20=Slow Poke
TTITLE21=You Won't Need My Love Anymore
TTITLE22=Two Roads
TTITLE23=Railroad Boogie
TTITLE24=Makin' Like A Train
EXTD=
EXTT0=
EXTT1=
EXTT2=
EXTT3=
EXTT4=
EXTT5=
EXTT6=
EXTT7=
EXTT8=
EXTT9=
EXTT10=
EXTT11=
EXTT12=
EXTT13=
EXTT14=
EXTT15=
EXTT16=
EXTT17=
EXTT18=
EXTT19=
EXTT20=
EXTT21=
EXTT22=
EXTT23=
EXTT24=
PLAYORDER=
